{
	"asset":{
		"generator":"Khronos glTF Blender I/O v4.3.47",
		"version":"2.0"
	},
	"scene":0,
	"scenes":[
		{
			"name":"Scene",
			"nodes":[
				32
			]
		}
	],
	"nodes":[
		{
			"name":"HeadTop_End",
			"rotation":[
				0.00023073775810189545,
				-6.7923439691424336e-18,
				-2.5702502375129182e-19,
				1
			],
			"translation":[
				-3.5250301803947274e-21,
				0.6287282705307007,
				-1.4551915228366852e-11
			]
		},
		{
			"children":[
				0
			],
			"name":"Head",
			"rotation":[
				0.0006433481466956437,
				1.9957898829302192e-16,
				1.079169526229393e-14,
				0.9999998211860657
			],
			"translation":[
				2.1318065924189923e-14,
				0.045780934393405914,
				5.820766091346741e-11
			]
		},
		{
			"children":[
				1
			],
			"name":"Neck",
			"rotation":[
				0.00802918802946806,
				8.746944141213575e-11,
				-1.0006947803731236e-07,
				0.9999677538871765
			],
			"scale":[
				1,
				0.9999999403953552,
				1
			],
			"translation":[
				1.924461834335034e-08,
				0.09615788608789444,
				0.0002538673870731145
			]
		},
		{
			"name":"LeftHand_Dummy",
			"rotation":[
				0.006697118282318115,
				0.013293377123773098,
				0.011815917678177357,
				0.9998193979263306
			],
			"scale":[
				1,
				1.0000001192092896,
				0.9999999403953552
			],
			"translation":[
				-1.8335413187742233e-09,
				0.13342733681201935,
				2.2970152713241987e-07
			]
		},
		{
			"children":[
				3
			],
			"name":"LeftHand",
			"rotation":[
				-0.010539540089666843,
				1.4756490251954801e-08,
				-5.0846949307015166e-05,
				0.9999444484710693
			],
			"scale":[
				1.0000001192092896,
				1,
				1
			],
			"translation":[
				-4.369212547317147e-09,
				0.1633290797472,
				-1.5692592114646686e-08
			]
		},
		{
			"children":[
				4
			],
			"name":"LeftForeArm",
			"rotation":[
				-0.02959478832781315,
				9.095470159081742e-05,
				-0.002054135547950864,
				0.9995598793029785
			],
			"translation":[
				3.0886440072208643e-09,
				0.23663266003131866,
				-1.617263478692621e-08
			]
		},
		{
			"children":[
				5
			],
			"name":"LeftArm",
			"rotation":[
				-0.07005103677511215,
				-5.2158244216116145e-05,
				0.00372117618098855,
				0.9975364804267883
			],
			"translation":[
				8.731149137020111e-11,
				0.08890137076377869,
				7.023572834441438e-09
			]
		},
		{
			"children":[
				6
			],
			"name":"LeftShoulder",
			"rotation":[
				0.5737167000770569,
				0.4136870503425598,
				-0.5766039490699768,
				0.4089500606060028
			],
			"scale":[
				0.9999999403953552,
				1.0000001192092896,
				1
			],
			"translation":[
				0.0782805010676384,
				0.07477675378322601,
				-0.0002188106591347605
			]
		},
		{
			"name":"RightHand_Dummy",
			"rotation":[
				0.006673365831375122,
				-0.011294864118099213,
				-0.010047398507595062,
				0.9998635053634644
			],
			"scale":[
				1.0000001192092896,
				1,
				1
			],
			"translation":[
				-2.1391315385699272e-09,
				0.13342662155628204,
				8.101187631837092e-08
			]
		},
		{
			"children":[
				8
			],
			"name":"RightHand",
			"rotation":[
				-0.010511929169297218,
				-0.0015357682714238763,
				-0.002075673546642065,
				0.9999414086341858
			],
			"scale":[
				1,
				1.0000001192092896,
				1
			],
			"translation":[
				4.0745362639427185e-10,
				0.16332899034023285,
				-3.101922629866749e-08
			]
		},
		{
			"children":[
				9
			],
			"name":"RightForeArm",
			"rotation":[
				-0.02958912029862404,
				-0.0014291092520579696,
				0.0016631875187158585,
				0.999559760093689
			],
			"scale":[
				1,
				1.0000001192092896,
				0.9999999403953552
			],
			"translation":[
				1.5861587598919868e-09,
				0.23663224279880524,
				-1.6789647361292737e-07
			]
		},
		{
			"children":[
				10
			],
			"name":"RightArm",
			"rotation":[
				-0.0700342133641243,
				-0.0003614607558120042,
				-0.004169877618551254,
				0.9975358247756958
			],
			"translation":[
				-3.346940502524376e-09,
				0.08890186995267868,
				1.2943655747221783e-07
			]
		},
		{
			"children":[
				11
			],
			"name":"RightShoulder",
			"rotation":[
				0.5724462270736694,
				-0.4136999249458313,
				0.5778466463088989,
				0.40896329283714294
			],
			"scale":[
				1.0000001192092896,
				1,
				1
			],
			"translation":[
				-0.07828052341938019,
				0.07477327436208725,
				-3.5052864404860884e-05
			]
		},
		{
			"name":"Spine2_Dummy",
			"rotation":[
				-0.7007832527160645,
				-1.4280986171399945e-08,
				1.2780038360915569e-08,
				0.7133742570877075
			],
			"translation":[
				-3.38317156407808e-14,
				0.08190260082483292,
				1.2223608791828156e-09
			]
		},
		{
			"children":[
				2,
				7,
				12,
				13
			],
			"name":"Spine2",
			"rotation":[
				-0.0013200069079175591,
				-7.588557560112008e-10,
				1.0006662876094197e-07,
				0.9999991655349731
			],
			"translation":[
				0,
				0.08547387272119522,
				-3.4924596548080444e-10
			]
		},
		{
			"children":[
				14
			],
			"name":"Spine1",
			"rotation":[
				-3.67872416973114e-08,
				0,
				0,
				1
			],
			"translation":[
				0,
				0.07478992640972137,
				-2.3283064365386963e-10
			]
		},
		{
			"children":[
				15
			],
			"name":"Spine",
			"rotation":[
				-0.007583244703710079,
				0,
				0,
				0.9999712705612183
			],
			"scale":[
				1,
				0.9999999403953552,
				0.9999999403953552
			],
			"translation":[
				0,
				0.064098060131073,
				-0.0009722268441691995
			]
		},
		{
			"name":"LeftToe_End",
			"rotation":[
				-9.653025756506395e-08,
				-1.680947048221526e-15,
				-5.316113105280351e-10,
				1
			],
			"translation":[
				3.109125401579149e-09,
				0.12144733965396881,
				-2.7486635190143716e-10
			]
		},
		{
			"children":[
				17
			],
			"name":"LeftToeBase",
			"rotation":[
				0.2294563353061676,
				1.117666784011817e-06,
				0.0023703807964920998,
				0.9733160734176636
			],
			"translation":[
				1.3096723705530167e-10,
				0.12144730985164642,
				-1.5366822481155396e-08
			]
		},
		{
			"children":[
				18
			],
			"name":"LeftFoot",
			"rotation":[
				0.6106407642364502,
				-0.0003745084395632148,
				-0.005763566121459007,
				0.7918866872787476
			],
			"scale":[
				0.9999998807907104,
				0.9999998807907104,
				0.9999998211860657
			],
			"translation":[
				1.7134880181401968e-09,
				0.16512513160705566,
				4.773028194904327e-09
			]
		},
		{
			"children":[
				19
			],
			"name":"LeftLeg",
			"rotation":[
				-0.10152822732925415,
				-0.00016926809621509165,
				0.004435175564140081,
				0.9948228001594543
			],
			"scale":[
				0.9999999403953552,
				0.9999998211860657,
				0.9999998807907104
			],
			"translation":[
				-1.7400481056029093e-10,
				0.20980967581272125,
				-4.3655745685100555e-11
			]
		},
		{
			"children":[
				20
			],
			"name":"LeftUpLeg",
			"rotation":[
				-0.00016805801715236157,
				0.0012864827876910567,
				-0.9999837875366211,
				0.005542387254536152
			],
			"scale":[
				1.0000001192092896,
				1,
				0.9999999403953552
			],
			"translation":[
				0.10814909636974335,
				-0.03564178943634033,
				-0.0039235809817910194
			]
		},
		{
			"name":"RightToe_End",
			"rotation":[
				1.5682447838116786e-06,
				4.6566106526313433e-10,
				-1.6025838434075013e-08,
				1
			],
			"translation":[
				-4.473807102556293e-09,
				0.12144725024700165,
				9.879279616598069e-09
			]
		},
		{
			"children":[
				22
			],
			"name":"RightToeBase",
			"rotation":[
				0.22945646941661835,
				1.4992725709817023e-06,
				-0.00237913616001606,
				0.9733160138130188
			],
			"scale":[
				1,
				1,
				0.9999998807907104
			],
			"translation":[
				-1.2554664863273501e-08,
				0.12144732475280762,
				-4.7963112592697144e-08
			]
		},
		{
			"children":[
				23
			],
			"name":"RightFoot",
			"rotation":[
				0.6178653240203857,
				-0.005882881581783295,
				0.01061391830444336,
				0.7861902713775635
			],
			"scale":[
				0.9999998807907104,
				1,
				0.9999999403953552
			],
			"translation":[
				4.190951585769653e-09,
				0.16579337418079376,
				-9.313225746154785e-10
			]
		},
		{
			"children":[
				24
			],
			"name":"RightLeg",
			"rotation":[
				-0.11581122875213623,
				0.008134923875331879,
				-0.005329542327672243,
				0.9932236671447754
			],
			"scale":[
				0.9999998211860657,
				0.9999999403953552,
				1
			],
			"translation":[
				-4.001776687800884e-09,
				0.2098153531551361,
				-1.8189894035458565e-10
			]
		},
		{
			"children":[
				25
			],
			"name":"RightUpLeg",
			"rotation":[
				-6.89194575898e-06,
				0.0038813427090644836,
				0.9999771118164062,
				0.0055421022698283195
			],
			"scale":[
				0.9999999403953552,
				0.9999999403953552,
				0.9999998807907104
			],
			"translation":[
				-0.10814907401800156,
				-0.03564184904098511,
				-0.0029633634258061647
			]
		},
		{
			"children":[
				16,
				21,
				26
			],
			"name":"Hips",
			"rotation":[
				-0.7071079611778259,
				0,
				0,
				0.7071055769920349
			],
			"translation":[
				0,
				0.004680100362747908,
				-0.46523621678352356
			]
		},
		{
			"mesh":0,
			"name":"body_arms",
			"skin":0
		},
		{
			"mesh":1,
			"name":"body_head",
			"skin":0
		},
		{
			"mesh":2,
			"name":"body_legs",
			"skin":0
		},
		{
			"mesh":3,
			"name":"body_torso",
			"skin":0
		},
		{
			"children":[
				28,
				29,
				30,
				31,
				27
			],
			"name":"Mini Simple Skeleton Armature",
			"rotation":[
				0.7071080803871155,
				0,
				0,
				0.7071055769920349
			]
		}
	],
	"materials":[
		{
			"doubleSided":true,
			"name":"mini simple material primary",
			"pbrMetallicRoughness":{
				"baseColorTexture":{
					"index":0
				},
				"metallicFactor":0,
				"roughnessFactor":0.4636363685131073
			}
		},
		{
			"doubleSided":true,
			"name":"mini simple material secondary",
			"pbrMetallicRoughness":{
				"baseColorTexture":{
					"index":1
				},
				"metallicFactor":0,
				"roughnessFactor":0.4636363685131073
			}
		}
	],
	"meshes":[
		{
			"name":"body_arms",
			"primitives":[
				{
					"attributes":{
						"POSITION":0,
						"NORMAL":1,
						"TEXCOORD_0":2,
						"JOINTS_0":3,
						"WEIGHTS_0":4
					},
					"indices":5,
					"material":0
				}
			]
		},
		{
			"extras":{
				"targetNames":[
					"Angry",
					"Sad"
				]
			},
			"name":"body_head",
			"primitives":[
				{
					"attributes":{
						"POSITION":7,
						"NORMAL":8,
						"TEXCOORD_0":9,
						"JOINTS_0":10,
						"WEIGHTS_0":11
					},
					"indices":12,
					"material":0,
					"targets":[
						{
							"POSITION":13,
							"NORMAL":14
						},
						{
							"POSITION":15,
							"NORMAL":16
						}
					]
				},
				{
					"attributes":{
						"POSITION":17,
						"NORMAL":18,
						"TEXCOORD_0":19,
						"JOINTS_0":20,
						"WEIGHTS_0":21
					},
					"indices":22,
					"material":1,
					"targets":[
						{
							"POSITION":23,
							"NORMAL":24
						},
						{
							"POSITION":25,
							"NORMAL":26
						}
					]
				}
			],
			"weights":[
				0,
				0
			]
		},
		{
			"name":"body_legs",
			"primitives":[
				{
					"attributes":{
						"POSITION":27,
						"NORMAL":28,
						"TEXCOORD_0":29,
						"JOINTS_0":30,
						"WEIGHTS_0":31
					},
					"indices":32,
					"material":0
				}
			]
		},
		{
			"name":"body_torso",
			"primitives":[
				{
					"attributes":{
						"POSITION":33,
						"NORMAL":34,
						"TEXCOORD_0":35,
						"JOINTS_0":36,
						"WEIGHTS_0":37
					},
					"indices":38,
					"material":0
				}
			]
		}
	],
	"textures":[
		{
			"sampler":0,
			"source":0
		},
		{
			"sampler":0,
			"source":0
		}
	],
	"images":[
		{
			"mimeType":"image/png",
			"name":"base_texture_01",
			"uri":"base_texture_01.png"
		}
	],
	"skins":[
		{
			"inverseBindMatrices":6,
			"joints":[
				27,
				16,
				15,
				14,
				2,
				1,
				0,
				7,
				6,
				5,
				4,
				3,
				12,
				11,
				10,
				9,
				8,
				13,
				21,
				20,
				19,
				18,
				17,
				26,
				25,
				24,
				23,
				22
			],
			"name":"Mini Simple Skeleton Armature"
		}
	],
	"accessors":[
		{
			"bufferView":0,
			"componentType":5126,
			"count":774,
			"max":[
				0.7409553527832031,
				0.773169755935669,
				0.07357125729322433
			],
			"min":[
				-0.7409553527832031,
				0.5598137974739075,
				-0.10638891160488129
			],
			"type":"VEC3"
		},
		{
			"bufferView":1,
			"componentType":5126,
			"count":774,
			"type":"VEC3"
		},
		{
			"bufferView":2,
			"componentType":5126,
			"count":774,
			"type":"VEC2"
		},
		{
			"bufferView":3,
			"componentType":5121,
			"count":774,
			"type":"VEC4"
		},
		{
			"bufferView":4,
			"componentType":5126,
			"count":774,
			"type":"VEC4"
		},
		{
			"bufferView":5,
			"componentType":5123,
			"count":4428,
			"type":"SCALAR"
		},
		{
			"bufferView":6,
			"componentType":5126,
			"count":28,
			"type":"MAT4"
		},
		{
			"bufferView":7,
			"componentType":5126,
			"count":273,
			"max":[
				0.3138439655303955,
				1.4609442949295044,
				0.3379448652267456
			],
			"min":[
				-0.3138439655303955,
				0.7951463460922241,
				-0.4182024300098419
			],
			"type":"VEC3"
		},
		{
			"bufferView":8,
			"componentType":5126,
			"count":273,
			"type":"VEC3"
		},
		{
			"bufferView":9,
			"componentType":5126,
			"count":273,
			"type":"VEC2"
		},
		{
			"bufferView":10,
			"componentType":5121,
			"count":273,
			"type":"VEC4"
		},
		{
			"bufferView":11,
			"componentType":5126,
			"count":273,
			"type":"VEC4"
		},
		{
			"bufferView":12,
			"componentType":5123,
			"count":1518,
			"type":"SCALAR"
		},
		{
			"componentType":5126,
			"count":273,
			"max":[
				0.010303739458322525,
				0,
				2.9802322387695312e-08
			],
			"min":[
				-0.010303739458322525,
				-0.07764458656311035,
				-1.4901161193847656e-08
			],
			"sparse":{
				"count":49,
				"indices":{
					"bufferView":13,
					"componentType":5123
				},
				"values":{
					"bufferView":14
				}
			},
			"type":"VEC3"
		},
		{
			"componentType":5126,
			"count":273,
			"sparse":{
				"count":140,
				"indices":{
					"bufferView":15,
					"componentType":5123
				},
				"values":{
					"bufferView":16
				}
			},
			"type":"VEC3"
		},
		{
			"componentType":5126,
			"count":273,
			"max":[
				0.02098625898361206,
				0.0113450288772583,
				2.9802322387695312e-08
			],
			"min":[
				-0.02098625898361206,
				-0.10428905487060547,
				-2.9802322387695312e-08
			],
			"sparse":{
				"count":58,
				"indices":{
					"bufferView":17,
					"componentType":5123
				},
				"values":{
					"bufferView":18
				}
			},
			"type":"VEC3"
		},
		{
			"componentType":5126,
			"count":273,
			"sparse":{
				"count":143,
				"indices":{
					"bufferView":19,
					"componentType":5123
				},
				"values":{
					"bufferView":20
				}
			},
			"type":"VEC3"
		},
		{
			"bufferView":21,
			"componentType":5126,
			"count":70,
			"max":[
				0.24165770411491394,
				1.2580739259719849,
				0.3331924080848694
			],
			"min":[
				-0.24165770411491394,
				0.9688207507133484,
				0.047103192657232285
			],
			"type":"VEC3"
		},
		{
			"bufferView":22,
			"componentType":5126,
			"count":70,
			"type":"VEC3"
		},
		{
			"bufferView":23,
			"componentType":5126,
			"count":70,
			"type":"VEC2"
		},
		{
			"bufferView":24,
			"componentType":5121,
			"count":70,
			"type":"VEC4"
		},
		{
			"bufferView":25,
			"componentType":5126,
			"count":70,
			"type":"VEC4"
		},
		{
			"bufferView":26,
			"componentType":5123,
			"count":324,
			"type":"SCALAR"
		},
		{
			"componentType":5126,
			"count":70,
			"max":[
				0.010303739458322525,
				0,
				2.9802322387695312e-08
			],
			"min":[
				-0.010303739458322525,
				-0.06510984897613525,
				-1.4901161193847656e-08
			],
			"sparse":{
				"count":14,
				"indices":{
					"bufferView":27,
					"componentType":5121
				},
				"values":{
					"bufferView":28
				}
			},
			"type":"VEC3"
		},
		{
			"componentType":5126,
			"count":70,
			"sparse":{
				"count":46,
				"indices":{
					"bufferView":29,
					"componentType":5121
				},
				"values":{
					"bufferView":30
				}
			},
			"type":"VEC3"
		},
		{
			"componentType":5126,
			"count":70,
			"max":[
				0.020193040370941162,
				0.007523059844970703,
				2.9802322387695312e-08
			],
			"min":[
				-0.020193040370941162,
				-0.10428905487060547,
				-2.9802322387695312e-08
			],
			"sparse":{
				"count":16,
				"indices":{
					"bufferView":31,
					"componentType":5121
				},
				"values":{
					"bufferView":32
				}
			},
			"type":"VEC3"
		},
		{
			"bufferView":33,
			"componentType":5126,
			"count":70,
			"type":"VEC3"
		},
		{
			"bufferView":34,
			"componentType":5126,
			"count":1104,
			"max":[
				0.16879266500473022,
				0.405333012342453,
				0.13222180306911469
			],
			"min":[
				-0.16879266500473022,
				-8.408933354075998e-05,
				-0.06367681920528412
			],
			"type":"VEC3"
		},
		{
			"bufferView":35,
			"componentType":5126,
			"count":1104,
			"type":"VEC3"
		},
		{
			"bufferView":36,
			"componentType":5126,
			"count":1104,
			"type":"VEC2"
		},
		{
			"bufferView":37,
			"componentType":5121,
			"count":1104,
			"type":"VEC4"
		},
		{
			"bufferView":38,
			"componentType":5126,
			"count":1104,
			"type":"VEC4"
		},
		{
			"bufferView":39,
			"componentType":5123,
			"count":6360,
			"type":"SCALAR"
		},
		{
			"bufferView":40,
			"componentType":5126,
			"count":824,
			"max":[
				0.24042993783950806,
				0.8699832558631897,
				0.1938406378030777
			],
			"min":[
				-0.24042993783950806,
				0.3075598478317261,
				-0.1795872300863266
			],
			"type":"VEC3"
		},
		{
			"bufferView":41,
			"componentType":5126,
			"count":824,
			"type":"VEC3"
		},
		{
			"bufferView":42,
			"componentType":5126,
			"count":824,
			"type":"VEC2"
		},
		{
			"bufferView":43,
			"componentType":5121,
			"count":824,
			"type":"VEC4"
		},
		{
			"bufferView":44,
			"componentType":5126,
			"count":824,
			"type":"VEC4"
		},
		{
			"bufferView":45,
			"componentType":5123,
			"count":4656,
			"type":"SCALAR"
		}
	],
	"bufferViews":[
		{
			"buffer":0,
			"byteLength":9288,
			"byteOffset":0,
			"target":34962
		},
		{
			"buffer":0,
			"byteLength":9288,
			"byteOffset":9288,
			"target":34962
		},
		{
			"buffer":0,
			"byteLength":6192,
			"byteOffset":18576,
			"target":34962
		},
		{
			"buffer":0,
			"byteLength":3096,
			"byteOffset":24768,
			"target":34962
		},
		{
			"buffer":0,
			"byteLength":12384,
			"byteOffset":27864,
			"target":34962
		},
		{
			"buffer":0,
			"byteLength":8856,
			"byteOffset":40248,
			"target":34963
		},
		{
			"buffer":0,
			"byteLength":1792,
			"byteOffset":49104
		},
		{
			"buffer":0,
			"byteLength":3276,
			"byteOffset":50896,
			"target":34962
		},
		{
			"buffer":0,
			"byteLength":3276,
			"byteOffset":54172,
			"target":34962
		},
		{
			"buffer":0,
			"byteLength":2184,
			"byteOffset":57448,
			"target":34962
		},
		{
			"buffer":0,
			"byteLength":1092,
			"byteOffset":59632,
			"target":34962
		},
		{
			"buffer":0,
			"byteLength":4368,
			"byteOffset":60724,
			"target":34962
		},
		{
			"buffer":0,
			"byteLength":3036,
			"byteOffset":65092,
			"target":34963
		},
		{
			"buffer":0,
			"byteLength":98,
			"byteOffset":68128
		},
		{
			"buffer":0,
			"byteLength":588,
			"byteOffset":68228
		},
		{
			"buffer":0,
			"byteLength":280,
			"byteOffset":68816
		},
		{
			"buffer":0,
			"byteLength":1680,
			"byteOffset":69096
		},
		{
			"buffer":0,
			"byteLength":116,
			"byteOffset":70776
		},
		{
			"buffer":0,
			"byteLength":696,
			"byteOffset":70892
		},
		{
			"buffer":0,
			"byteLength":286,
			"byteOffset":71588
		},
		{
			"buffer":0,
			"byteLength":1716,
			"byteOffset":71876
		},
		{
			"buffer":0,
			"byteLength":840,
			"byteOffset":73592,
			"target":34962
		},
		{
			"buffer":0,
			"byteLength":840,
			"byteOffset":74432,
			"target":34962
		},
		{
			"buffer":0,
			"byteLength":560,
			"byteOffset":75272,
			"target":34962
		},
		{
			"buffer":0,
			"byteLength":280,
			"byteOffset":75832,
			"target":34962
		},
		{
			"buffer":0,
			"byteLength":1120,
			"byteOffset":76112,
			"target":34962
		},
		{
			"buffer":0,
			"byteLength":648,
			"byteOffset":77232,
			"target":34963
		},
		{
			"buffer":0,
			"byteLength":14,
			"byteOffset":77880
		},
		{
			"buffer":0,
			"byteLength":168,
			"byteOffset":77896
		},
		{
			"buffer":0,
			"byteLength":46,
			"byteOffset":78064
		},
		{
			"buffer":0,
			"byteLength":552,
			"byteOffset":78112
		},
		{
			"buffer":0,
			"byteLength":16,
			"byteOffset":78664
		},
		{
			"buffer":0,
			"byteLength":192,
			"byteOffset":78680
		},
		{
			"buffer":0,
			"byteLength":840,
			"byteOffset":78872,
			"target":34962
		},
		{
			"buffer":0,
			"byteLength":13248,
			"byteOffset":79712,
			"target":34962
		},
		{
			"buffer":0,
			"byteLength":13248,
			"byteOffset":92960,
			"target":34962
		},
		{
			"buffer":0,
			"byteLength":8832,
			"byteOffset":106208,
			"target":34962
		},
		{
			"buffer":0,
			"byteLength":4416,
			"byteOffset":115040,
			"target":34962
		},
		{
			"buffer":0,
			"byteLength":17664,
			"byteOffset":119456,
			"target":34962
		},
		{
			"buffer":0,
			"byteLength":12720,
			"byteOffset":137120,
			"target":34963
		},
		{
			"buffer":0,
			"byteLength":9888,
			"byteOffset":149840,
			"target":34962
		},
		{
			"buffer":0,
			"byteLength":9888,
			"byteOffset":159728,
			"target":34962
		},
		{
			"buffer":0,
			"byteLength":6592,
			"byteOffset":169616,
			"target":34962
		},
		{
			"buffer":0,
			"byteLength":3296,
			"byteOffset":176208,
			"target":34962
		},
		{
			"buffer":0,
			"byteLength":13184,
			"byteOffset":179504,
			"target":34962
		},
		{
			"buffer":0,
			"byteLength":9312,
			"byteOffset":192688,
			"target":34963
		}
	],
	"samplers":[
		{
			"magFilter":9729,
			"minFilter":9987
		}
	],
	"buffers":[
		{
			"byteLength":202000,
			"uri":"skeleton.bin"
		}
	]
}
